<?xml version="1.0" encoding="UTF-8" standalone="no"?>
<!DOCTYPE svg PUBLIC "-//W3C//DTD SVG 1.1//EN"
 "http://www.w3.org/Graphics/SVG/1.1/DTD/svg11.dtd">
<!-- Generated by graphviz version 2.38.0 (20140413.2041)
 -->
<!-- Title: G Pages: 1 -->
<svg width="701pt" height="354pt"
 viewBox="0.00 0.00 700.94 353.82" xmlns="http://www.w3.org/2000/svg" xmlns:xlink="http://www.w3.org/1999/xlink">
<g id="graph0" class="graph" transform="scale(1 1) rotate(0) translate(4 349.818)">
<title>G</title><style>.edge>path:hover{stroke-width:8}</style>
<polygon fill="white" stroke="none" points="-4,4 -4,-349.818 696.939,-349.818 696.939,4 -4,4"/>
<!-- Package_example -->
<g id="node1" class="node"><title>Package_example</title><style>.edge>path:hover{stroke-width:8}</style>
<ellipse fill="#db0505" stroke="black" cx="253.668" cy="-185.844" rx="57.2008" ry="18"/>
<text text-anchor="middle" x="253.668" y="-183.344" font-family="Helvetica,sans-Serif" font-size="10.00" fill="#ffffff">Package_example</text>
</g>
<!-- Package_example_config -->
<g id="node2" class="node"><title>Package_example_config</title><style>.edge>path:hover{stroke-width:8}</style>
<ellipse fill="#e72222" stroke="black" cx="113.668" cy="-316.827" rx="70.922" ry="21.4286"/>
<text text-anchor="middle" x="113.668" y="-319.827" font-family="Helvetica,sans-Serif" font-size="10.00" fill="#ffffff">Package_example.</text>
<text text-anchor="middle" x="113.668" y="-308.827" font-family="Helvetica,sans-Serif" font-size="10.00" fill="#ffffff">config</text>
</g>
<!-- Package_example_config&#45;&gt;Package_example -->
<g id="edge1" class="edge"><title>Package_example_config&#45;&gt;Package_example</title><style>.edge>path:hover{stroke-width:8}</style>
<path fill="none" stroke="black" d="M150.796,-298.754C168.779,-288.162 188.268,-272.579 196.668,-251.836"/>
<path fill="none" stroke="black" d="M196.668,-250.836C203.036,-235.112 215.039,-220.7 226.395,-209.551"/>
<polygon fill="#e72222" stroke="black" points="228.789,-212.104 233.697,-202.714 224.005,-206.993 228.789,-212.104"/>
</g>
<!-- Package_example_main -->
<g id="node5" class="node"><title>Package_example_main</title><style>.edge>path:hover{stroke-width:8}</style>
<ellipse fill="#793434" stroke="black" cx="482.668" cy="-21.2132" rx="70.922" ry="21.4286"/>
<text text-anchor="middle" x="482.668" y="-24.2132" font-family="Helvetica,sans-Serif" font-size="10.00" fill="#ffffff">Package_example.</text>
<text text-anchor="middle" x="482.668" y="-13.2132" font-family="Helvetica,sans-Serif" font-size="10.00" fill="#ffffff">main</text>
</g>
<!-- Package_example_config&#45;&gt;Package_example_main -->
<g id="edge2" class="edge"><title>Package_example_config&#45;&gt;Package_example_main</title><style>.edge>path:hover{stroke-width:8}</style>
<path fill="none" stroke="black" d="M8.66831,-98.6396C25.4678,-63.2121 273.625,-38.5765 403.978,-28.0068"/>
<polygon fill="#e72222" stroke="black" points="404.614,-31.4671 414.303,-27.1791 404.055,-24.4895 404.614,-31.4671"/>
<path fill="none" stroke="black" d="M61.0804,-302.517C37.2784,-293.05 13.3871,-277.34 8.66831,-251.836"/>
<path fill="none" stroke="black" d="M8.66831,-250.836C3.49416,-222.87 12.6703,-215.002 8.66831,-186.844"/>
<path fill="none" stroke="black" d="M8.66831,-184.844C3.40223,-147.792 -7.36658,-134.455 8.66831,-100.64"/>
</g>
<!-- Package_example_pipelines_analysis_pipeline -->
<g id="node7" class="node"><title>Package_example_pipelines_analysis_pipeline</title><style>.edge>path:hover{stroke-width:8}</style>
<ellipse fill="#9d4343" stroke="black" cx="581.668" cy="-185.844" rx="70.922" ry="28.9828"/>
<text text-anchor="middle" x="581.668" y="-194.344" font-family="Helvetica,sans-Serif" font-size="10.00" fill="#ffffff">Package_example.</text>
<text text-anchor="middle" x="581.668" y="-183.344" font-family="Helvetica,sans-Serif" font-size="10.00" fill="#ffffff">pipelines.</text>
<text text-anchor="middle" x="581.668" y="-172.344" font-family="Helvetica,sans-Serif" font-size="10.00" fill="#ffffff">analysis_pipeline</text>
</g>
<!-- Package_example_config&#45;&gt;Package_example_pipelines_analysis_pipeline -->
<g id="edge3" class="edge"><title>Package_example_config&#45;&gt;Package_example_pipelines_analysis_pipeline</title><style>.edge>path:hover{stroke-width:8}</style>
<path fill="none" stroke="black" d="M156.019,-299.823C167.797,-295.646 180.655,-291.338 192.668,-287.836 260.98,-267.921 281.499,-275.318 348.668,-251.836"/>
<path fill="none" stroke="black" d="M348.668,-250.836C414.612,-227.782 434.606,-234.398 501.668,-214.836 507.694,-213.078 513.932,-211.129 520.146,-209.101"/>
<polygon fill="#e72222" stroke="black" points="521.474,-212.347 529.855,-205.865 519.261,-205.706 521.474,-212.347"/>
</g>
<!-- Package_example_pipelines_preprocessing_pipeline -->
<g id="node8" class="node"><title>Package_example_pipelines_preprocessing_pipeline</title><style>.edge>path:hover{stroke-width:8}</style>
<ellipse fill="#9d4343" stroke="black" cx="410.668" cy="-185.844" rx="82.0488" ry="28.9828"/>
<text text-anchor="middle" x="410.668" y="-194.344" font-family="Helvetica,sans-Serif" font-size="10.00" fill="#ffffff">Package_example.</text>
<text text-anchor="middle" x="410.668" y="-183.344" font-family="Helvetica,sans-Serif" font-size="10.00" fill="#ffffff">pipelines.</text>
<text text-anchor="middle" x="410.668" y="-172.344" font-family="Helvetica,sans-Serif" font-size="10.00" fill="#ffffff">preprocessing_pipeline</text>
</g>
<!-- Package_example_config&#45;&gt;Package_example_pipelines_preprocessing_pipeline -->
<g id="edge4" class="edge"><title>Package_example_config&#45;&gt;Package_example_pipelines_preprocessing_pipeline</title><style>.edge>path:hover{stroke-width:8}</style>
<path fill="none" stroke="black" d="M272.668,-250.836C295.986,-236.018 323.291,-222.625 347.431,-211.966"/>
<polygon fill="#e72222" stroke="black" points="349.083,-215.064 356.86,-207.869 346.293,-208.644 349.083,-215.064"/>
<path fill="none" stroke="black" d="M157.768,-300.139C197.618,-285.593 252.954,-264.364 272.668,-251.836"/>
</g>
<!-- Package_example_processing_data_management -->
<g id="node10" class="node"><title>Package_example_processing_data_management</title><style>.edge>path:hover{stroke-width:8}</style>
<ellipse fill="#9d4343" stroke="black" cx="107.668" cy="-185.844" rx="70.922" ry="28.9828"/>
<text text-anchor="middle" x="107.668" y="-194.344" font-family="Helvetica,sans-Serif" font-size="10.00" fill="#ffffff">Package_example.</text>
<text text-anchor="middle" x="107.668" y="-183.344" font-family="Helvetica,sans-Serif" font-size="10.00" fill="#ffffff">processing.</text>
<text text-anchor="middle" x="107.668" y="-172.344" font-family="Helvetica,sans-Serif" font-size="10.00" fill="#ffffff">data_management</text>
</g>
<!-- Package_example_config&#45;&gt;Package_example_processing_data_management -->
<g id="edge5" class="edge"><title>Package_example_config&#45;&gt;Package_example_processing_data_management</title><style>.edge>path:hover{stroke-width:8}</style>
<path fill="none" stroke="black" d="M8.66831,-250.836C4.85839,-230.243 19.912,-215.889 39.3577,-206.076"/>
<polygon fill="#e72222" stroke="black" points="40.9053,-209.217 48.5493,-201.881 37.9988,-202.849 40.9053,-209.217"/>
</g>
<!-- Package_example_config_config -->
<g id="node3" class="node"><title>Package_example_config_config</title><style>.edge>path:hover{stroke-width:8}</style>
<ellipse fill="#e61919" stroke="black" cx="272.668" cy="-316.827" rx="70.922" ry="28.9828"/>
<text text-anchor="middle" x="272.668" y="-325.327" font-family="Helvetica,sans-Serif" font-size="10.00" fill="#ffffff">Package_example.</text>
<text text-anchor="middle" x="272.668" y="-314.327" font-family="Helvetica,sans-Serif" font-size="10.00" fill="#ffffff">config.</text>
<text text-anchor="middle" x="272.668" y="-303.327" font-family="Helvetica,sans-Serif" font-size="10.00" fill="#ffffff">config</text>
</g>
<!-- Package_example_config_config&#45;&gt;Package_example -->
<g id="edge6" class="edge"><title>Package_example_config_config&#45;&gt;Package_example</title><style>.edge>path:hover{stroke-width:8}</style>
<path fill="none" stroke="black" d="M222.602,-295.984C204.058,-285.258 189.158,-270.381 196.668,-251.836"/>
</g>
<!-- Package_example_config_config&#45;&gt;Package_example_main -->
<g id="edge7" class="edge"><title>Package_example_config_config&#45;&gt;Package_example_main</title><style>.edge>path:hover{stroke-width:8}</style>
<path fill="none" stroke="black" d="M46.6683,-250.836C29.1695,-222.766 13.3227,-219.592 8.66831,-186.844"/>
<path fill="none" stroke="black" d="M221.069,-296.708C211.99,-293.584 202.591,-290.502 193.668,-287.836 129.22,-268.579 82.253,-308.916 46.6683,-251.836"/>
</g>
<!-- Package_example_config_config&#45;&gt;Package_example_pipelines_analysis_pipeline -->
<g id="edge8" class="edge"><title>Package_example_config_config&#45;&gt;Package_example_pipelines_analysis_pipeline</title><style>.edge>path:hover{stroke-width:8}</style>
<path fill="none" stroke="black" d="M295.037,-289.296C308.827,-275.119 327.827,-259.122 348.668,-251.836"/>
</g>
<!-- Package_example_config_config&#45;&gt;Package_example_pipelines_preprocessing_pipeline -->
<g id="edge9" class="edge"><title>Package_example_config_config&#45;&gt;Package_example_pipelines_preprocessing_pipeline</title><style>.edge>path:hover{stroke-width:8}</style>
<path fill="none" stroke="black" d="M263.329,-287.892C260.685,-274.223 261.135,-259.165 272.668,-251.836"/>
</g>
<!-- Package_example_config_config&#45;&gt;Package_example_processing_data_management -->
<g id="edge10" class="edge"><title>Package_example_config_config&#45;&gt;Package_example_processing_data_management</title><style>.edge>path:hover{stroke-width:8}</style>
<path fill="none" stroke="black" d="M46.6683,-250.836C38.8086,-238.228 45.6137,-226.006 57.1174,-215.68"/>
<polygon fill="#e61919" stroke="black" points="59.6208,-218.16 65.2486,-209.183 55.2513,-212.691 59.6208,-218.16"/>
</g>
<!-- Package_example_config_logging_config -->
<g id="node4" class="node"><title>Package_example_config_logging_config</title><style>.edge>path:hover{stroke-width:8}</style>
<ellipse fill="#e72222" stroke="black" cx="431.668" cy="-316.827" rx="70.922" ry="28.9828"/>
<text text-anchor="middle" x="431.668" y="-325.327" font-family="Helvetica,sans-Serif" font-size="10.00" fill="#ffffff">Package_example.</text>
<text text-anchor="middle" x="431.668" y="-314.327" font-family="Helvetica,sans-Serif" font-size="10.00" fill="#ffffff">config.</text>
<text text-anchor="middle" x="431.668" y="-303.327" font-family="Helvetica,sans-Serif" font-size="10.00" fill="#ffffff">logging_config</text>
</g>
<!-- Package_example_config_logging_config&#45;&gt;Package_example -->
<g id="edge11" class="edge"><title>Package_example_config_logging_config&#45;&gt;Package_example</title><style>.edge>path:hover{stroke-width:8}</style>
<path fill="none" stroke="black" d="M393.805,-292.011C375.646,-280.297 353.746,-265.736 334.668,-251.836 316.226,-238.398 296.221,-222.362 280.706,-209.582"/>
<polygon fill="#e72222" stroke="black" points="282.52,-206.539 272.587,-202.853 278.054,-211.929 282.52,-206.539"/>
</g>
<!-- Package_example_config_logging_config&#45;&gt;Package_example_main -->
<g id="edge12" class="edge"><title>Package_example_config_logging_config&#45;&gt;Package_example_main</title><style>.edge>path:hover{stroke-width:8}</style>
<path fill="none" stroke="black" d="M680.668,-250.836C689.594,-174.264 710.628,-137.973 661.668,-78.4264 637.37,-48.8739 597.687,-34.6062 561.852,-27.8186"/>
<polygon fill="#e72222" stroke="black" points="562.312,-24.3463 551.862,-26.096 561.122,-31.2445 562.312,-24.3463"/>
</g>
<!-- Package_example_config_logging_config&#45;&gt;Package_example_pipelines_analysis_pipeline -->
<g id="edge13" class="edge"><title>Package_example_config_logging_config&#45;&gt;Package_example_pipelines_analysis_pipeline</title><style>.edge>path:hover{stroke-width:8}</style>
<path fill="none" stroke="black" d="M680.668,-250.836C683.041,-230.479 668.409,-216.257 649.712,-206.484"/>
<polygon fill="#e72222" stroke="black" points="651.112,-203.275 640.575,-202.169 648.123,-209.604 651.112,-203.275"/>
</g>
<!-- Package_example_config_logging_config&#45;&gt;Package_example_pipelines_preprocessing_pipeline -->
<g id="edge14" class="edge"><title>Package_example_config_logging_config&#45;&gt;Package_example_pipelines_preprocessing_pipeline</title><style>.edge>path:hover{stroke-width:8}</style>
<path fill="none" stroke="black" d="M501.092,-311.274C573.266,-304.567 676.386,-288.577 680.668,-251.836"/>
<path fill="none" stroke="black" d="M680.668,-250.836C685.366,-210.534 540.997,-224.813 501.668,-214.836 494.619,-213.047 487.304,-211.047 480.024,-208.96"/>
<polygon fill="#e72222" stroke="black" points="480.727,-205.519 470.146,-206.072 478.762,-212.238 480.727,-205.519"/>
</g>
<!-- Package_example_config_logging_config&#45;&gt;Package_example_processing_data_management -->
<g id="edge15" class="edge"><title>Package_example_config_logging_config&#45;&gt;Package_example_processing_data_management</title><style>.edge>path:hover{stroke-width:8}</style>
<path fill="none" stroke="black" d="M379.161,-297.21C344.725,-284.803 298.81,-267.886 258.668,-251.836 227.002,-239.174 191.999,-224.173 163.673,-211.775"/>
<polygon fill="#e72222" stroke="black" points="164.901,-208.491 154.337,-207.677 162.087,-214.901 164.901,-208.491"/>
</g>
<!-- Package_example_pipelines -->
<g id="node6" class="node"><title>Package_example_pipelines</title><style>.edge>path:hover{stroke-width:8}</style>
<ellipse fill="#b65353" stroke="black" cx="383.668" cy="-99.6396" rx="70.922" ry="21.4286"/>
<text text-anchor="middle" x="383.668" y="-102.64" font-family="Helvetica,sans-Serif" font-size="10.00" fill="#ffffff">Package_example.</text>
<text text-anchor="middle" x="383.668" y="-91.6396" font-family="Helvetica,sans-Serif" font-size="10.00" fill="#ffffff">pipelines</text>
</g>
<!-- Package_example_pipelines&#45;&gt;Package_example_main -->
<g id="edge16" class="edge"><title>Package_example_pipelines&#45;&gt;Package_example_main</title><style>.edge>path:hover{stroke-width:8}</style>
<path fill="none" stroke="black" d="M408.395,-79.5511C420.916,-69.8851 436.286,-58.0195 449.79,-47.5951"/>
<polygon fill="#b65353" stroke="black" points="452.137,-50.2045 457.914,-41.3232 447.859,-44.6635 452.137,-50.2045"/>
</g>
<!-- Package_example_pipelines_analysis_pipeline&#45;&gt;Package_example_main -->
<g id="edge17" class="edge"><title>Package_example_pipelines_analysis_pipeline&#45;&gt;Package_example_main</title><style>.edge>path:hover{stroke-width:8}</style>
<path fill="none" stroke="black" d="M533.849,-164.338C509.659,-150.485 484.909,-129.434 482.668,-100.64"/>
</g>
<!-- Package_example_pipelines_preprocessing_pipeline&#45;&gt;Package_example_main -->
<g id="edge18" class="edge"><title>Package_example_pipelines_preprocessing_pipeline&#45;&gt;Package_example_main</title><style>.edge>path:hover{stroke-width:8}</style>
<path fill="none" stroke="black" d="M482.668,-98.6396C481.495,-83.5654 481.366,-66.7679 481.585,-52.7683"/>
<polygon fill="#9d4343" stroke="black" points="485.086,-52.7578 481.808,-42.6828 478.087,-52.603 485.086,-52.7578"/>
<path fill="none" stroke="black" d="M449.399,-160.092C467.411,-145.248 484.534,-124.61 482.668,-100.64"/>
</g>
<!-- Package_example_processing -->
<g id="node9" class="node"><title>Package_example_processing</title><style>.edge>path:hover{stroke-width:8}</style>
<ellipse fill="#b65353" stroke="black" cx="581.668" cy="-99.6396" rx="70.922" ry="21.4286"/>
<text text-anchor="middle" x="581.668" y="-102.64" font-family="Helvetica,sans-Serif" font-size="10.00" fill="#ffffff">Package_example.</text>
<text text-anchor="middle" x="581.668" y="-91.6396" font-family="Helvetica,sans-Serif" font-size="10.00" fill="#ffffff">processing</text>
</g>
<!-- Package_example_processing&#45;&gt;Package_example_main -->
<g id="edge19" class="edge"><title>Package_example_processing&#45;&gt;Package_example_main</title><style>.edge>path:hover{stroke-width:8}</style>
<path fill="none" stroke="black" d="M556.942,-79.5511C544.421,-69.8851 529.05,-58.0195 515.547,-47.5951"/>
<polygon fill="#b65353" stroke="black" points="517.477,-44.6635 507.423,-41.3232 513.2,-50.2045 517.477,-44.6635"/>
</g>
<!-- Package_example_processing_data_management&#45;&gt;Package_example_main -->
<g id="edge20" class="edge"><title>Package_example_processing_data_management&#45;&gt;Package_example_main</title><style>.edge>path:hover{stroke-width:8}</style>
<path fill="none" stroke="black" d="M56.1127,-165.914C25.5717,-151.368 -4.7698,-128.978 8.66831,-100.64"/>
</g>
</g>
</svg>
